# xmcd
#
# Track frame offsets:
#	150
#	19730
#	37203
#	55243
#	76106
#	93077
#	95930
#	116745
#	127808
#	146907
#	163103
#	176244
#
# Disc length: 2770 seconds
#
# Revision: 1
# Processed by: cddbd v1.5PL3 Copyright (c) Steve Scherf et al.
# Submitted via: CDmax 2.0
#
DISCID=a50ad00c
DTITLE=Mitch Ryder - A Dark Caucasian Blues
DYEAR=2004
DGENRE=Blues
TTITLE0=Yeah, You Right
TTITLE1=From A Buick 6
TTITLE2=I Guess I'm Feeling Blue
TTITLE3=Detroit
TTITLE4=The Porch
TTITLE5=Maikaefer Fliege
TTITLE6=The New Mother
TTITLE7=Just One More Beautiful Day
TTITLE8=Dear Lord Won't You Help This Child
TTITLE9=Another Bout Justice
TTITLE10=Decidedly British Blues
TTITLE11=How How How How
EXTD=
EXTT0=
EXTT1=
EXTT2=
EXTT3=
EXTT4=
EXTT5=
EXTT6=
EXTT7=
EXTT8=
EXTT9=
EXTT10=
EXTT11=
PLAYORDER=
